<svg xmlns="http://www.w3.org/2000/svg" viewBox="0 0 400 400" fill="none" shape-rendering="auto"><metadata xmlns:rdf="http://www.w3.org/1999/02/22-rdf-syntax-ns#" xmlns:xsi="http://www.w3.org/2001/XMLSchema-instance" xmlns:dc="http://purl.org/dc/elements/1.1/" xmlns:dcterms="http://purl.org/dc/terms/"><rdf:RDF><rdf:Description><dc:title>Adventurer Neutral</dc:title><dc:creator>Lisa Wischofsky</dc:creator><dc:source xsi:type="dcterms:URI">https://www.figma.com/community/file/1184595184137881796</dc:source><dcterms:license xsi:type="dcterms:URI">https://creativecommons.org/licenses/by/4.0/</dcterms:license><dc:rights>Remix of „Adventurer Neutral” (https://www.figma.com/community/file/1184595184137881796) by „Lisa Wischofsky”, licensed under „CC BY 4.0” (https://creativecommons.org/licenses/by/4.0/)</dc:rights></rdf:Description></rdf:RDF></metadata><mask id="viewboxMask"><rect width="400" height="400" rx="0" ry="0" x="0" y="0" fill="#fff" /></mask><g mask="url(#viewboxMask)"><rect fill="#f2d3b1" width="400" height="400" x="0" y="0" /><g transform="translate(-279 -322)"><path d="M562.01 467.8c1.68 0 3.23.31 4.88.58-.28 2.28.34 4.36-2.64 4.8-9.4.76-18.83 1.45-28.25 2.06-4.32.2-8.78 1.16-13.1.84-1.94-.79-2.62-2-2.03-4.1 1.45-1.38 3.19-1.54 5.1-1.69 12.02-.64 24-1.86 36.04-2.5ZM396.33 481.31c1.23 1.24 2.2 1.91 2.08 3.85-1.42 2.52-4.9 2.05-7.38 2.36-8.05.21-16.06 1.68-24.09 1.71-2.7-.36-2.11-2.53-2.53-4.58 10.33-2.64 21.37-1.79 31.93-3.34ZM618.89 483.07c1.04.75 2.08 1.48 3.13 2.22a65.59 65.59 0 0 1-9.93 38.78 65.45 65.45 0 0 1-24.32 22.73c-14.52 7.96-32.32 9.86-48.26 5.44a65.36 65.36 0 0 1-35.32-24.4 63.91 63.91 0 0 1-12.38-33.97c2.1-3.32 5.74-3 9.17-3.26 30.68-2.1 61.35-4.13 92.02-6.22 8.7-.2 17.2-1.64 25.89-1.32Z" fill="#000"/><path d="M616.28 488.65c.74 20.78-11.03 41.27-28.85 51.8-11.82 6.93-25.88 9.98-39.46 7.75a59.72 59.72 0 0 1-35.27-18.9c-8.02-8.88-13.6-20.53-14.76-32.49 11.17-1.23 22.38-1.67 33.58-2.63.38 8.47 1.87 17.19 5.2 25.03 1.89 4.28 5.29 10.07 10.23 11.13 4.79.85 7.97-2.58 9.97-6.45 4.58-9.28 4-21.5 3.22-31.56 18.7-1.25 37.42-2.66 56.14-3.67Z" fill="#fff"/><path d="M415.01 499.71c8.1-.69 16.13-1.44 24.27-1.05.87.83 1.75 1.67 2.64 2.49.19 16-6.7 31.57-18.78 42.06a54.81 54.81 0 0 1-42.17 13.2 54.34 54.34 0 0 1-30.73-13.64 55.18 55.18 0 0 1-17.98-34.89c1.04-.88 2.19-2.68 3.63-2.82 13.04-1.6 26.05-1.69 39.11-2.95 13.35-.64 26.66-1.71 40-2.4Z" fill="#000"/><path d="M436.36 504.29c-.69 5.07-1.44 9.93-3.28 14.74a49.5 49.5 0 0 1-22.2 25.81 51 51 0 0 1-23.88 6.33 49.93 49.93 0 0 1-35.25-14.93 49.66 49.66 0 0 1-13.37-25.88 1021.4 1021.4 0 0 1 34.1-2.24c-.06 7.18.95 14.37 4.79 20.58 1.69 2.6 4.35 5.19 7.69 5 3.57-.14 6.11-3.3 7.5-6.28 2.85-6.64 2.88-13.67 2.25-20.74 13.86-.8 27.77-2.18 41.65-2.39Z" fill="#fff"/></g><g transform="translate(-279 -322)"><path d="M397.06 373.14c6.81.19 14.18 2.86 17.93 8.88 1.05 1.45.63 3.68.72 5.4-6.29.15-12.49.33-18.64 1.83-15.06 3.48-29.35 10.86-41.64 20.15-8.37 6.38-16.34 14.1-21.95 23.07-1.43 2.22-2.41 5.03-4.3 6.89-1.23.26-2.56.28-3.82.35-.05-1.77-.23-3.46.2-5.19 5.73-20.86 19.84-39.34 38.13-50.81 9.83-5.84 21.73-11.05 33.37-10.57ZM578.52 411.66c10.4 1.67 21.2 3.85 30 9.97l-.2 4.78c-4.07 1.6-7.3-.14-11.31-.77-6.82-1.2-13.9-1.25-20.83-1.11-29.25 1.32-58.23 9.9-83.97 23.74-1.44.63-2.9 1.06-4.4 1.54-2.6-5.36-3.62-10.91-.14-16.17 5.13-7.67 15.2-12.39 23.63-15.44 21.34-7.36 44.88-9 67.23-6.53Z" fill="#000"/></g><g transform="translate(-279 -322)"><path d="M519 572.72c12.29.18 24.45 2.02 35.94 6.5a92.61 92.61 0 0 1 43.87 34.94c1.14 1.53.8 3.58.95 5.41-7.22.57-14.43-.04-21.67.76.12 7.4 0 14.39-3.75 21.02-2.2 3.77-5.7 7.2-10.34 7.12-4.5-.03-8.23-3.43-10.38-7.1-3.71-6.4-4.2-13.83-4.46-21.04-25.38.12-50.77.29-76.16.43-7.35-.26-14.65.67-22 .42-7.53-.2-14.18.78-21.52-.74.07-1.62-.5-4.04.59-5.37 22.4-25.3 54.86-41.81 88.93-42.35Z" fill="#000"/><path d="M508.98 579.48a152.3 152.3 0 0 1 21.04-.02 88.9 88.9 0 0 1 48.66 20.86c-11.23.4-22.44.62-33.68.58-30.98 1.14-62 .83-92.97 1.81 6.13-4.2 12.16-8.37 18.84-11.68a112.4 112.4 0 0 1 38.1-11.54Z" fill="#8F2E45"/><path d="M569 606.4c5.17 0 10.56-.64 15.68.04 2.37 2.05 4.27 4.7 6.31 7.09-5.88.61-11.88.05-17.7.77-1.23 7.11-.33 16.61-3.6 23.41-1.15 2.7-3.33 4.05-5.67 5.57-2.32-1.57-4.53-2.89-5.74-5.56-3.42-6.8-3.33-15.68-4.08-23.16-5.72-.52-11.4-.06-17.2-.19-32.79.26-65.57.28-98.36.54 2.11-2.04 4.57-5.6 7.5-6.24 17.96-.7 35.91-.24 53.86-1.1 11-.5 22-.08 33-.59 12-.24 24-.08 36-.57Z" fill="#6FA942"/></g><g transform="translate(-279 -322)"></g></g></svg>